HIERARCHY
ROOT Pelvis
{
	OFFSET 0.000000 0.000000 0.000000
	CHANNELS 6 Xposition Yposition Zposition Xrotation Yrotation Zrotation
	JOINT LeftUpLeg_virtual
	{
		OFFSET 0.000000 0.000000 0.000000
		CHANNELS 3 Xrotation Yrotation Zrotation
		JOINT LeftUpLeg
		{
			OFFSET 18.735201 -5.666702 -4.541200
			CHANNELS 3 Xrotation Yrotation Zrotation
			JOINT LeftLeg
			{
				OFFSET -0.021200 -31.938179 0.493100
				CHANNELS 3 Xrotation Yrotation Zrotation
				JOINT LeftFoot
				{
					OFFSET 0.021200 -31.938179 -4.336299
					CHANNELS 3 Xrotation Yrotation Zrotation
					JOINT LeftToeBase
					{
						OFFSET 0.943001 -26.722000 15.023500
						CHANNELS 3 Xrotation Yrotation Zrotation
						End Site
						{
							OFFSET 0 0 0
						}
					}
				}
			}
		}
	}
	JOINT RightUpLeg_virtual
	{
		OFFSET 0.000000 0.000000 0.000000
		CHANNELS 3 Xrotation Yrotation Zrotation
		JOINT RightUpLeg
		{
			OFFSET -18.735201 -5.666702 -4.541200
			CHANNELS 3 Xrotation Yrotation Zrotation
			JOINT RightLeg
			{
				OFFSET 0.018946 -31.938133 0.493100
				CHANNELS 3 Xrotation Yrotation Zrotation
				JOINT RightFoot
				{
					OFFSET -0.018946 -31.938126 -4.336299
					CHANNELS 3 Xrotation Yrotation Zrotation
					JOINT RightToeBase
					{
						OFFSET -0.943001 -26.722004 15.023500
						CHANNELS 3 Xrotation Yrotation Zrotation
						End Site
						{
							OFFSET 0 0 0
						}
					}
				}
			}
		}
	}
	JOINT Hips_virtual
	{
		OFFSET 0.000000 0.000000 0.000000
		CHANNELS 3 Xrotation Yrotation Zrotation
		JOINT Hips
		{
			OFFSET -0.000000 -0.000000 -0.000000
			CHANNELS 3 Xrotation Yrotation Zrotation
			JOINT Spine
			{
				OFFSET 0.000000 10.199997 -0.299500
				CHANNELS 3 Xrotation Yrotation Zrotation
				JOINT Spine1
				{
					OFFSET 0.000000 11.900002 -1.516600
					CHANNELS 3 Xrotation Yrotation Zrotation
					JOINT Spine2
					{
						OFFSET 0.000000 13.600006 -2.842500
						CHANNELS 3 Xrotation Yrotation Zrotation
						JOINT Neck_virtual
						{
							OFFSET 0.000000 0.000000 0.000000
							CHANNELS 3 Xrotation Yrotation Zrotation
							JOINT Neck
							{
								OFFSET 0.000000 9.624100 -2.890100
								CHANNELS 3 Xrotation Yrotation Zrotation
								JOINT Head
								{
									OFFSET 0.000000 14.068802 -1.351900
									CHANNELS 3 Xrotation Yrotation Zrotation
									End Site
									{
										OFFSET 0 0 0
									}
								}
							}
						}
						JOINT LeftShoulder_virtual
						{
							OFFSET 0.000000 0.000000 0.000000
							CHANNELS 3 Xrotation Yrotation Zrotation
							JOINT LeftShoulder
							{
								OFFSET 15.263000 10.923401 -0.547700
								CHANNELS 3 Xrotation Yrotation Zrotation
								JOINT LeftArm
								{
									OFFSET 25.438599 -2.830597 -13.032500
									CHANNELS 3 Xrotation Yrotation Zrotation
									JOINT LeftForeArm
									{
										OFFSET 29.960503 0.000000 0.000000
										CHANNELS 3 Xrotation Yrotation Zrotation
										JOINT LeftHand
										{
											OFFSET 27.849251 0.000000 0.000000
											CHANNELS 3 Xrotation Yrotation Zrotation
											End Site
											{
												OFFSET 0 0 0
											}
										}
									}
								}
							}
						}
						JOINT RightShoulder_virtual
						{
							OFFSET 0.000000 0.000000 0.000000
							CHANNELS 3 Xrotation Yrotation Zrotation
							JOINT RightShoulder
							{
								OFFSET -15.263000 10.923401 -0.547700
								CHANNELS 3 Xrotation Yrotation Zrotation
								JOINT RightArm
								{
									OFFSET -25.438599 -2.830597 -13.032500
									CHANNELS 3 Xrotation Yrotation Zrotation
									JOINT RightForeArm
									{
										OFFSET -29.960503 0.000000 0.000000
										CHANNELS 3 Xrotation Yrotation Zrotation
										JOINT RightHand
										{
											OFFSET -27.849251 0.000000 0.000000
											CHANNELS 3 Xrotation Yrotation Zrotation
											End Site
											{
												OFFSET 0 0 0
											}
										}
									}
								}
							}
						}
					}
				}
			}
		}
	}
}
MOTION
Frames: 13
Frame Time: 0.03333333
-5.328932 38.935181 72.448151 0.000000 0.000000 0.000000 17.665092 -39.201263 -4.632488 -11.365984 3.634267 0.677914 97.037809 -15.014709 -6.193011 26.803843 -13.885540 -29.484236 0.000000 0.000000 0.000000 19.683186 5.291185 1.160064 -1.613131 -6.138178 -11.417259 103.115639 6.672159 -8.367055 25.877480 11.870502 9.643186 0.000000 0.000000 0.000000 11.841677 -10.831559 0.644796 17.313126 -19.315333 -7.955043 3.038423 -1.305475 -0.572793 -0.933353 0.240879 0.473951 0.000000 0.000000 0.000000 -13.082884 0.723141 2.589427 -8.365519 1.466635 1.347620 0.000000 0.000000 0.000000 -8.538058 1.516613 -2.314053 -16.129493 -0.041921 -13.484778 59.663287 -14.268330 -20.261782 38.956452 -29.836158 11.327205 0.000000 0.000000 0.000000 -8.891959 1.923651 3.574696 -16.940734 1.810766 13.497349 2.448904 -9.389348 60.102898 -12.669581 59.177920 22.380629 0.000000 0.000000 0.000000 
-5.034245 38.737129 73.610649 0.000000 0.000000 0.000000 18.192106 -39.902590 -4.909122 -10.348170 3.502891 -0.098849 96.157725 -14.665608 -6.221320 26.082503 -13.384530 -29.060023 0.000000 0.000000 0.000000 20.303270 4.704920 1.251556 -0.733012 -6.413984 -11.368830 102.173087 6.553852 -8.440473 25.124779 11.660683 9.343250 0.000000 0.000000 0.000000 12.062142 -10.693098 0.618409 18.050066 -19.194862 -7.852791 3.418525 -1.476114 -0.407161 -0.758533 0.177823 0.584777 0.000000 0.000000 0.000000 -13.247578 0.711928 2.779795 -8.414350 1.512275 1.450315 0.000000 0.000000 0.000000 -8.377450 1.415287 -2.217916 -16.213785 -0.248856 -13.087619 59.059423 -13.150032 -20.607625 38.154147 -28.161816 10.395787 0.000000 0.000000 0.000000 -8.633935 1.857519 3.743043 -16.791586 1.548647 13.816026 -0.092939 -9.497752 59.883731 -15.455931 60.999593 24.491808 0.000000 0.000000 0.000000 
-4.710661 38.522644 74.784332 0.000000 0.000000 0.000000 18.771301 -40.524759 -5.121755 -9.294708 3.378091 -0.808659 95.317633 -14.254647 -6.243611 25.413297 -12.837026 -28.568672 0.000000 0.000000 0.000000 20.953547 4.122534 1.339664 0.195858 -6.692006 -11.321319 101.308972 6.488752 -8.500839 24.407015 11.503844 9.134921 0.000000 0.000000 0.000000 12.355044 -10.429793 0.601276 18.943996 -18.968607 -7.652623 3.792305 -1.637723 -0.250920 -0.585917 0.121851 0.689274 0.000000 0.000000 0.000000 -13.403758 0.709119 2.962176 -8.460383 1.555489 1.547981 0.000000 0.000000 0.000000 -8.253438 1.313625 -2.124497 -16.329247 -0.496775 -12.721027 58.176621 -12.289926 -21.013319 37.316807 -26.857907 9.549713 0.000000 0.000000 0.000000 -8.309770 1.799476 3.884261 -16.576584 1.303674 14.027736 -1.259365 -8.811396 59.326525 -17.062823 62.813835 25.727315 0.000000 0.000000 0.000000 
-4.352469 38.288773 75.960426 0.000000 0.000000 0.000000 19.388928 -41.062547 -5.279470 -8.222871 3.263214 -1.453910 94.519928 -13.797098 -6.258561 24.788742 -12.257787 -28.026032 0.000000 0.000000 0.000000 21.626944 3.545298 1.418113 1.164403 -6.970307 -11.281728 100.514498 6.472464 -8.546382 23.724426 11.393672 9.012463 0.000000 0.000000 0.000000 12.719486 -10.057965 0.591278 19.986443 -18.666796 -7.367929 4.149809 -1.784322 -0.106637 -0.420533 0.075847 0.786020 0.000000 0.000000 0.000000 -13.547646 0.713125 3.132883 -8.501902 1.595523 1.638386 0.000000 0.000000 0.000000 -8.170704 1.216031 -2.038007 -16.478337 -0.768382 -12.398126 57.033497 -11.665989 -21.495864 36.442351 -25.892397 8.764599 0.000000 0.000000 0.000000 -7.945697 1.750862 3.997317 -16.322626 1.079127 14.128778 -1.200939 -7.461303 58.418724 -17.443161 64.600906 25.974666 0.000000 0.000000 0.000000 
-3.956244 38.033092 77.133789 0.000000 0.000000 0.000000 20.026475 -41.517745 -5.396936 -7.153577 3.160538 -2.042495 93.760568 -13.311525 -6.264603 24.194839 -11.663713 -27.449876 0.000000 0.000000 0.000000 22.316468 2.980646 1.480463 2.164852 -7.245349 -11.255565 99.770786 6.503479 -8.575733 23.068030 11.325461 8.972725 0.000000 0.000000 0.000000 13.150877 -9.597165 0.584766 21.161840 -18.322821 -7.017169 4.484892 -1.910552 0.022182 -0.265388 0.042090 0.873060 0.000000 0.000000 0.000000 -13.676448 0.721848 3.288209 -8.537614 1.631452 1.719425 0.000000 0.000000 0.000000 -8.130806 1.127271 -1.960841 -16.660407 -1.043267 -12.124324 55.659946 -11.243320 -22.066794 35.536607 -25.218710 8.021484 0.000000 0.000000 0.000000 -7.567768 1.712232 4.082780 -16.055722 0.875925 14.123409 -0.124580 -5.624703 57.144081 -16.627505 66.318323 25.193446 0.000000 0.000000 0.000000 
-3.522927 37.753971 78.303452 0.000000 0.000000 0.000000 20.666839 -41.893283 -5.488734 -6.105972 3.072428 -2.582499 93.028467 -12.814853 -6.259684 23.613374 -11.069769 -26.854427 0.000000 0.000000 0.000000 23.016792 2.439440 1.520747 3.192117 -7.513103 -11.246742 99.057011 6.582100 -8.587607 22.425200 11.295781 9.014863 0.000000 0.000000 0.000000 13.641454 -9.069602 0.577636 22.448458 -17.971046 -6.620385 4.795444 -2.011790 0.131908 -0.121364 0.022258 0.948332 0.000000 0.000000 0.000000 -13.788908 0.733407 3.424918 -8.566906 1.662610 1.789377 0.000000 0.000000 0.000000 -8.130939 1.052017 -1.893092 -16.870540 -1.300110 -11.895490 54.104107 -10.979116 -22.725252 34.615955 -24.782838 7.310265 0.000000 0.000000 0.000000 -7.199820 1.683567 4.142844 -15.798847 0.693746 14.023903 1.728760 -3.507240 55.511454 -14.728553 67.908459 23.429342 0.000000 0.000000 0.000000 
-3.059253 37.450684 79.471886 0.000000 0.000000 0.000000 21.300343 -42.188340 -5.564515 -5.091582 3.002321 -3.078242 92.305772 -12.318406 -6.241040 23.024223 -10.485879 -26.246446 0.000000 0.000000 0.000000 23.725101 1.931505 1.534441 4.243955 -7.770515 -11.257681 98.356725 6.707426 -8.580315 21.784830 11.300059 9.137732 0.000000 0.000000 0.000000 14.181223 -8.498731 0.566433 23.820650 -17.643255 -6.195679 5.082370 -2.084206 0.219691 0.012216 0.017460 1.010133 0.000000 0.000000 0.000000 -13.885406 0.746633 3.540744 -8.589915 1.688888 1.847150 0.000000 0.000000 0.000000 -8.163327 0.994448 -1.832552 -17.098882 -1.518566 -11.698040 52.435823 -10.829777 -23.454152 33.708145 -24.531142 6.631362 0.000000 0.000000 0.000000 -6.862275 1.664463 4.181100 -15.570833 0.531999 13.849291 4.100264 -1.320847 53.575130 -11.947711 69.312152 20.827386 0.000000 0.000000 0.000000 
-2.577888 37.123348 80.643417 0.000000 0.000000 0.000000 21.928140 -42.396121 -5.626883 -4.110391 2.955091 -3.528993 91.568774 -11.826249 -6.205163 22.407416 -9.915934 -25.624092 0.000000 0.000000 0.000000 24.440879 1.462411 1.519217 5.319956 -8.016404 -11.289446 97.660360 6.874252 -8.551467 21.140469 11.329955 9.336712 0.000000 0.000000 0.000000 14.759323 -7.906997 0.549163 25.252348 -17.364002 -5.756830 5.347823 -2.124819 0.284151 0.136635 0.028270 1.057509 0.000000 0.000000 0.000000 -13.967646 0.761218 3.634741 -8.607389 1.710820 1.892432 0.000000 0.000000 0.000000 -8.215652 0.957946 -1.775270 -17.331105 -1.680652 -11.511330 50.743815 -10.758153 -24.220932 32.850184 -24.417125 5.994829 0.000000 0.000000 0.000000 -6.571664 1.654223 4.202010 -15.385993 0.390353 13.622690 6.728765 0.742355 51.439586 -8.571886 70.482976 17.632273 0.000000 0.000000 0.000000 
-2.096034 36.772686 81.822746 0.000000 0.000000 0.000000 22.561722 -42.504465 -5.672229 -3.150576 2.936700 -3.930140 90.789702 -11.336036 -6.147954 21.744729 -9.358896 -24.978557 0.000000 0.000000 0.000000 25.165118 1.033701 1.475073 6.420179 -8.251211 -11.341740 96.964808 7.071806 -8.498109 20.491421 11.372593 9.601918 0.000000 0.000000 0.000000 15.365467 -7.313323 0.525623 26.720977 -17.146263 -5.312810 5.593438 -2.131585 0.325627 0.252843 0.054742 1.090424 0.000000 0.000000 0.000000 -14.038049 0.777516 3.707329 -8.620425 1.729448 1.925675 0.000000 0.000000 0.000000 -8.272663 0.944842 -1.716539 -17.550002 -1.771709 -11.311760 49.126166 -10.738800 -24.983065 32.083181 -24.405801 5.417113 0.000000 0.000000 0.000000 -6.340544 1.651853 4.210196 -15.254205 0.268709 13.367807 9.370521 2.534012 49.246292 -4.946336 71.397340 14.162150 0.000000 0.000000 0.000000 
-1.632822 36.399532 83.014671 0.000000 0.000000 0.000000 23.219086 -42.498082 -5.693686 -2.191933 2.953413 -4.275587 89.939146 -10.841622 -6.065095 21.021003 -8.811331 -24.297633 0.000000 0.000000 0.000000 25.899671 0.646442 1.403723 7.544479 -8.475747 -11.412844 96.271742 7.285016 -8.417368 19.842603 11.412315 9.918671 0.000000 0.000000 0.000000 15.991133 -6.731261 0.497173 28.210204 -16.989107 -4.869285 5.819246 -2.103459 0.345904 0.360862 0.096445 1.109677 0.000000 0.000000 0.000000 -14.099205 0.796160 3.760088 -8.630213 1.746075 1.947930 0.000000 0.000000 0.000000 -8.318659 0.956221 -1.652017 -17.738025 -1.781061 -11.077539 47.676541 -10.759790 -25.696650 31.445812 -24.475092 4.916396 0.000000 0.000000 0.000000 -6.177396 1.655996 4.209662 -15.180889 0.166953 13.105158 11.824136 3.963713 47.146832 -1.419195 72.056454 10.752290 0.000000 0.000000 0.000000 
-1.206320 36.004196 84.224808 0.000000 0.000000 0.000000 23.919329 -42.361489 -5.684594 -1.211262 3.011012 -4.560037 88.989018 -10.336450 -5.952530 20.225025 -8.270315 -23.569963 0.000000 0.000000 0.000000 26.647339 0.305769 1.307497 8.693005 -8.689741 -11.499614 95.586380 7.497476 -8.307329 19.203825 11.434089 10.269805 0.000000 0.000000 0.000000 16.630073 -6.168398 0.466110 29.710616 -16.878386 -4.431249 6.023442 -2.040406 0.347541 0.459681 0.152528 1.116605 0.000000 0.000000 0.000000 -14.153569 0.817658 3.795340 -8.637855 1.761990 1.960599 0.000000 0.000000 0.000000 -8.340224 0.991774 -1.578656 -17.879962 -1.702455 -10.792686 46.470613 -10.821177 -26.325195 30.968228 -24.614777 4.508017 0.000000 0.000000 0.000000 -6.086247 1.664950 4.203059 -15.166705 0.085000 12.848762 13.955711 5.000054 45.271501 1.727101 72.479918 7.684852 0.000000 0.000000 0.000000 
-0.831118 35.585915 85.460556 0.000000 0.000000 0.000000 24.678116 -42.080946 -5.640958 -0.187331 3.114242 -4.780180 87.916269 -9.816845 -5.807030 19.350290 -7.735918 -22.788965 0.000000 0.000000 0.000000 27.412420 0.023354 1.188232 9.867357 -8.891060 -11.597821 94.916441 7.694239 -8.167676 18.588744 11.426460 10.638056 0.000000 0.000000 0.000000 17.278152 -5.627139 0.434914 31.218452 -16.790123 -4.005691 6.202850 -1.943388 0.333149 0.547514 0.221802 1.112726 0.000000 0.000000 0.000000 -14.203390 0.842087 3.815665 -8.644313 1.778248 1.965134 0.000000 0.000000 0.000000 -8.328533 1.049762 -1.495202 -17.965168 -1.534228 -10.449312 45.556604 -10.931488 -26.845794 30.668352 -24.824278 4.201290 0.000000 0.000000 0.000000 -6.066090 1.676830 4.191194 -15.207049 0.023460 12.603954 15.716291 5.661175 43.704359 4.330425 72.695220 5.132328 0.000000 0.000000 0.000000 
-0.517119 35.142509 86.731300 0.000000 0.000000 0.000000 25.505350 -41.645730 -5.562119 0.896135 3.266543 -4.934559 86.706799 -9.284572 -5.626830 18.395663 -7.212752 -21.955865 0.000000 0.000000 0.000000 28.200832 -0.184013 1.046610 11.071208 -9.076094 -11.702847 94.270551 7.863074 -7.999827 18.013135 11.382449 11.007288 0.000000 0.000000 0.000000 17.932779 -5.106457 0.405652 32.733784 -16.695373 -3.603036 6.353636 -1.814326 0.304920 0.622234 0.302796 1.099469 0.000000 0.000000 0.000000 -14.250776 0.868981 3.823409 -8.650381 1.795578 1.962774 0.000000 0.000000 0.000000 -8.280725 1.127109 -1.402206 -17.988787 -1.279127 -10.047906 44.952381 -11.103931 -27.251273 30.551163 -25.109806 3.998360 0.000000 0.000000 0.000000 -6.110623 1.689846 4.172916 -15.291875 -0.015230 12.367033 17.144489 6.000772 42.472001 6.369052 72.728961 3.135209 0.000000 0.000000 0.000000 
